{
    "asset" : {
        "generator" : "Khronos glTF Blender I/O v3.3.32",
        "version" : "2.0"
    },
    "scene" : 0,
    "scenes" : [
        {
            "name" : "Scene",
            "nodes" : [
                0,
                1,
                2,
                3
            ]
        }
    ],
    "nodes" : [
        {
            "mesh" : 0,
            "name" : "Brain_Part_02",
            "rotation" : [
                0.7117130756378174,
                0,
                0,
                0.7024703621864319
            ],
            "scale" : [
                3.586127758026123,
                3.5861287117004395,
                3.5861287117004395
            ],
            "translation" : [
                0.05877329409122467,
                -0.5684102177619934,
                -0.9173790812492371
            ]
        },
        {
            "mesh" : 1,
            "name" : "Brain_Part_04",
            "rotation" : [
                0.7117130756378174,
                0,
                0,
                0.7024703621864319
            ],
            "scale" : [
                3.586127758026123,
                3.5861287117004395,
                3.5861287117004395
            ],
            "translation" : [
                0.897962749004364,
                0.7527539134025574,
                -0.07254501432180405
            ]
        },
        {
            "mesh" : 2,
            "name" : "Brain_Part_05",
            "rotation" : [
                0.7117130756378174,
                0,
                0,
                0.7024703621864319
            ],
            "scale" : [
                3.586127758026123,
                3.5861287117004395,
                3.5861287117004395
            ],
            "translation" : [
                0.08442039787769318,
                0.1623966097831726,
                0.0684385672211647
            ]
        },
        {
            "mesh" : 3,
            "name" : "Brain_Part_06",
            "rotation" : [
                0.7117130756378174,
                0,
                0,
                0.7024703621864319
            ],
            "scale" : [
                3.586127758026123,
                3.5861287117004395,
                3.5861287117004395
            ],
            "translation" : [
                -0.6396387219429016,
                0.7527539134025574,
                -0.07254501432180405
            ]
        }
    ],
    "materials" : [
        {
            "doubleSided" : true,
            "name" : "BRAIN_TEXTURE_blinn2",
            "pbrMetallicRoughness" : {
                "baseColorFactor" : [
                    0.7484014630317688,
                    0.23608838021755219,
                    0.2950500547885895,
                    1
                ],
                "metallicFactor" : 0,
                "roughnessFactor" : 0.5
            }
        }
    ],
    "meshes" : [
        {
            "name" : "Untitled.005",
            "primitives" : [
                {
                    "attributes" : {
                        "POSITION" : 0,
                        "NORMAL" : 1,
                        "TEXCOORD_0" : 2
                    },
                    "indices" : 3,
                    "material" : 0
                }
            ]
        },
        {
            "name" : "Untitled.003",
            "primitives" : [
                {
                    "attributes" : {
                        "POSITION" : 4,
                        "NORMAL" : 5,
                        "TEXCOORD_0" : 6,
                        "TEXCOORD_1" : 7
                    },
                    "indices" : 8,
                    "material" : 0
                }
            ]
        },
        {
            "name" : "Untitled.004",
            "primitives" : [
                {
                    "attributes" : {
                        "POSITION" : 9,
                        "NORMAL" : 10,
                        "TEXCOORD_0" : 11
                    },
                    "indices" : 12,
                    "material" : 0
                }
            ]
        },
        {
            "name" : "Untitled.002",
            "primitives" : [
                {
                    "attributes" : {
                        "POSITION" : 13,
                        "NORMAL" : 14,
                        "TEXCOORD_0" : 15,
                        "TEXCOORD_1" : 16
                    },
                    "indices" : 17,
                    "material" : 0
                }
            ]
        }
    ],
    "accessors" : [
        {
            "bufferView" : 0,
            "componentType" : 5126,
            "count" : 6919,
            "max" : [
                0.4303946793079376,
                0.2161475419998169,
                0.14938056468963623
            ],
            "min" : [
                -0.4303993880748749,
                -0.24971187114715576,
                -0.22577202320098877
            ],
            "type" : "VEC3"
        },
        {
            "bufferView" : 1,
            "componentType" : 5126,
            "count" : 6919,
            "type" : "VEC3"
        },
        {
            "bufferView" : 2,
            "componentType" : 5126,
            "count" : 6919,
            "type" : "VEC2"
        },
        {
            "bufferView" : 3,
            "componentType" : 5123,
            "count" : 40716,
            "type" : "SCALAR"
        },
        {
            "bufferView" : 4,
            "componentType" : 5126,
            "count" : 19994,
            "max" : [
                0.3148539662361145,
                0.6792975068092346,
                0.37723761796951294
            ],
            "min" : [
                -0.2207905501127243,
                -0.6369249224662781,
                -0.46005791425704956
            ],
            "type" : "VEC3"
        },
        {
            "bufferView" : 5,
            "componentType" : 5126,
            "count" : 19994,
            "type" : "VEC3"
        },
        {
            "bufferView" : 6,
            "componentType" : 5126,
            "count" : 19994,
            "type" : "VEC2"
        },
        {
            "bufferView" : 7,
            "componentType" : 5126,
            "count" : 19994,
            "type" : "VEC2"
        },
        {
            "bufferView" : 8,
            "componentType" : 5123,
            "count" : 114666,
            "type" : "SCALAR"
        },
        {
            "bufferView" : 9,
            "componentType" : 5126,
            "count" : 1672,
            "max" : [
                0.3363898992538452,
                0.29457029700279236,
                0.499733567237854
            ],
            "min" : [
                -0.3363853693008423,
                -0.2597934305667877,
                -0.316916823387146
            ],
            "type" : "VEC3"
        },
        {
            "bufferView" : 10,
            "componentType" : 5126,
            "count" : 1672,
            "type" : "VEC3"
        },
        {
            "bufferView" : 11,
            "componentType" : 5126,
            "count" : 1672,
            "type" : "VEC2"
        },
        {
            "bufferView" : 12,
            "componentType" : 5123,
            "count" : 9705,
            "type" : "SCALAR"
        },
        {
            "bufferView" : 13,
            "componentType" : 5126,
            "count" : 19994,
            "max" : [
                0.2207905501127243,
                0.6792975068092346,
                0.37723761796951294
            ],
            "min" : [
                -0.3148539662361145,
                -0.6369249224662781,
                -0.46005791425704956
            ],
            "type" : "VEC3"
        },
        {
            "bufferView" : 14,
            "componentType" : 5126,
            "count" : 19994,
            "type" : "VEC3"
        },
        {
            "bufferView" : 15,
            "componentType" : 5126,
            "count" : 19994,
            "type" : "VEC2"
        },
        {
            "bufferView" : 16,
            "componentType" : 5126,
            "count" : 19994,
            "type" : "VEC2"
        },
        {
            "bufferView" : 17,
            "componentType" : 5123,
            "count" : 114666,
            "type" : "SCALAR"
        }
    ],
    "bufferViews" : [
        {
            "buffer" : 0,
            "byteLength" : 83028,
            "byteOffset" : 0,
            "target" : 34962
        },
        {
            "buffer" : 0,
            "byteLength" : 83028,
            "byteOffset" : 83028,
            "target" : 34962
        },
        {
            "buffer" : 0,
            "byteLength" : 55352,
            "byteOffset" : 166056,
            "target" : 34962
        },
        {
            "buffer" : 0,
            "byteLength" : 81432,
            "byteOffset" : 221408,
            "target" : 34963
        },
        {
            "buffer" : 0,
            "byteLength" : 239928,
            "byteOffset" : 302840,
            "target" : 34962
        },
        {
            "buffer" : 0,
            "byteLength" : 239928,
            "byteOffset" : 542768,
            "target" : 34962
        },
        {
            "buffer" : 0,
            "byteLength" : 159952,
            "byteOffset" : 782696,
            "target" : 34962
        },
        {
            "buffer" : 0,
            "byteLength" : 159952,
            "byteOffset" : 942648,
            "target" : 34962
        },
        {
            "buffer" : 0,
            "byteLength" : 229332,
            "byteOffset" : 1102600,
            "target" : 34963
        },
        {
            "buffer" : 0,
            "byteLength" : 20064,
            "byteOffset" : 1331932,
            "target" : 34962
        },
        {
            "buffer" : 0,
            "byteLength" : 20064,
            "byteOffset" : 1351996,
            "target" : 34962
        },
        {
            "buffer" : 0,
            "byteLength" : 13376,
            "byteOffset" : 1372060,
            "target" : 34962
        },
        {
            "buffer" : 0,
            "byteLength" : 19410,
            "byteOffset" : 1385436,
            "target" : 34963
        },
        {
            "buffer" : 0,
            "byteLength" : 239928,
            "byteOffset" : 1404848,
            "target" : 34962
        },
        {
            "buffer" : 0,
            "byteLength" : 239928,
            "byteOffset" : 1644776,
            "target" : 34962
        },
        {
            "buffer" : 0,
            "byteLength" : 159952,
            "byteOffset" : 1884704,
            "target" : 34962
        },
        {
            "buffer" : 0,
            "byteLength" : 159952,
            "byteOffset" : 2044656,
            "target" : 34962
        },
        {
            "buffer" : 0,
            "byteLength" : 229332,
            "byteOffset" : 2204608,
            "target" : 34963
        }
    ],
    "buffers" : [
        {
            "byteLength" : 2433940,
            "uri" : "data:application/octet-stream;base64,"
        }
    ]
}
