{
    "asset" : {
        "generator" : "Khronos glTF Blender I/O v3.3.32",
        "version" : "2.0"
    },
    "extensionsUsed" : [
        "KHR_materials_specular",
        "KHR_materials_ior"
    ],
    "scene" : 0,
    "scenes" : [
        {
            "name" : "Scene",
            "nodes" : [
                0
            ]
        }
    ],
    "nodes" : [
        {
            "mesh" : 0,
            "name" : "sclera cornea",
            "rotation" : [
                0.969570517539978,
                -0.18813662230968475,
                0.09513365477323532,
                0.12444783002138138
            ],
            "scale" : [
                0.008177663199603558,
                0.0098740728572011,
                0.008177663199603558
            ],
            "translation" : [
                0.02770444191992283,
                -0.04190904647111893,
                -0.002642545849084854
            ]
        }
    ],
    "materials" : [
        {
            "doubleSided" : true,
            "name" : "sclera cornea",
            "pbrMetallicRoughness" : {
                "metallicFactor" : 0,
                "roughnessFactor" : 0.09545454382896423
            }
        },
        {
            "doubleSided" : true,
            "extensions" : {
                "KHR_materials_specular" : {
                    "specularColorFactor" : [
                        0,
                        0,
                        0
                    ]
                },
                "KHR_materials_ior" : {
                    "ior" : 1.4500000476837158
                }
            },
            "name" : "iris",
            "pbrMetallicRoughness" : {
                "metallicFactor" : 0.6954545378684998,
                "roughnessFactor" : 0.22272726893424988
            }
        }
    ],
    "meshes" : [
        {
            "name" : "iris",
            "primitives" : [
                {
                    "attributes" : {
                        "POSITION" : 0,
                        "NORMAL" : 1,
                        "TEXCOORD_0" : 2
                    },
                    "indices" : 3,
                    "material" : 0
                },
                {
                    "attributes" : {
                        "POSITION" : 4,
                        "NORMAL" : 5,
                        "TEXCOORD_0" : 6
                    },
                    "indices" : 7,
                    "material" : 1
                }
            ]
        }
    ],
    "accessors" : [
        {
            "bufferView" : 0,
            "componentType" : 5126,
            "count" : 583,
            "max" : [
                1.0000001192092896,
                0.16065233945846558,
                1.0000078678131104
            ],
            "min" : [
                -1.000000238418579,
                -1.5642859935760498,
                -0.9999926686286926
            ],
            "type" : "VEC3"
        },
        {
            "bufferView" : 1,
            "componentType" : 5126,
            "count" : 583,
            "type" : "VEC3"
        },
        {
            "bufferView" : 2,
            "componentType" : 5126,
            "count" : 583,
            "type" : "VEC2"
        },
        {
            "bufferView" : 3,
            "componentType" : 5123,
            "count" : 3168,
            "type" : "SCALAR"
        },
        {
            "bufferView" : 4,
            "componentType" : 5126,
            "count" : 162,
            "max" : [
                0.4440988600254059,
                -7.152557373046875e-07,
                0.44410455226898193
            ],
            "min" : [
                -0.4440988302230835,
                -0.09129029512405396,
                -0.44409337639808655
            ],
            "type" : "VEC3"
        },
        {
            "bufferView" : 5,
            "componentType" : 5126,
            "count" : 162,
            "type" : "VEC3"
        },
        {
            "bufferView" : 6,
            "componentType" : 5126,
            "count" : 162,
            "type" : "VEC2"
        },
        {
            "bufferView" : 7,
            "componentType" : 5123,
            "count" : 672,
            "type" : "SCALAR"
        }
    ],
    "bufferViews" : [
        {
            "buffer" : 0,
            "byteLength" : 6996,
            "byteOffset" : 0,
            "target" : 34962
        },
        {
            "buffer" : 0,
            "byteLength" : 6996,
            "byteOffset" : 6996,
            "target" : 34962
        },
        {
            "buffer" : 0,
            "byteLength" : 4664,
            "byteOffset" : 13992,
            "target" : 34962
        },
        {
            "buffer" : 0,
            "byteLength" : 6336,
            "byteOffset" : 18656,
            "target" : 34963
        },
        {
            "buffer" : 0,
            "byteLength" : 1944,
            "byteOffset" : 24992,
            "target" : 34962
        },
        {
            "buffer" : 0,
            "byteLength" : 1944,
            "byteOffset" : 26936,
            "target" : 34962
        },
        {
            "buffer" : 0,
            "byteLength" : 1296,
            "byteOffset" : 28880,
            "target" : 34962
        },
        {
            "buffer" : 0,
            "byteLength" : 1344,
            "byteOffset" : 30176,
            "target" : 34963
        }
    ],
    "buffers" : [
        {
            "byteLength" : 31520,
            "uri" : "data:application/octet-stream;base64,"
        }
    ]
}
