{
    "asset" : {
        "generator" : "Khronos glTF Blender I/O v3.3.32",
        "version" : "2.0"
    },
    "extensionsUsed" : [
        "KHR_materials_specular"
    ],
    "scene" : 0,
    "scenes" : [
        {
            "name" : "Scene",
            "nodes" : [
                0
            ]
        }
    ],
    "nodes" : [
        {
            "mesh" : 0,
            "name" : "12140_Skull_v3_L2",
            "scale" : [
                0.10000000149011612,
                0.10000000149011612,
                0.10000000149011612
            ]
        }
    ],
    "materials" : [
        {
            "doubleSided" : true,
            "extensions" : {
                "KHR_materials_specular" : {
                    "specularColorFactor" : [
                        0.2340000122785568,
                        0.2340000122785568,
                        0.2340000122785568
                    ]
                }
            },
            "name" : "12140_Skull_v3",
            "pbrMetallicRoughness" : {
                "baseColorTexture" : {
                    "index" : 0
                },
                "metallicFactor" : 0,
                "roughnessFactor" : 0.8450806736946106
            }
        }
    ],
    "meshes" : [
        {
            "name" : "12140_Skull_v3_L2",
            "primitives" : [
                {
                    "attributes" : {
                        "POSITION" : 0,
                        "NORMAL" : 1,
                        "TEXCOORD_0" : 2
                    },
                    "indices" : 3,
                    "material" : 0
                }
            ]
        }
    ],
    "textures" : [
        {
            "sampler" : 0,
            "source" : 0
        }
    ],
    "images" : [
        {
            "bufferView" : 4,
            "mimeType" : "image/jpeg",
            "name" : "Skull"
        }
    ],
    "accessors" : [
        {
            "bufferView" : 0,
            "componentType" : 5126,
            "count" : 42682,
            "max" : [
                9.9199800491333,
                14.27975082397461,
                12.78888988494873
            ],
            "min" : [
                -9.920319557189941,
                -13.24594783782959,
                -16.663110733032227
            ],
            "type" : "VEC3"
        },
        {
            "bufferView" : 1,
            "componentType" : 5126,
            "count" : 42682,
            "type" : "VEC3"
        },
        {
            "bufferView" : 2,
            "componentType" : 5126,
            "count" : 42682,
            "type" : "VEC2"
        },
        {
            "bufferView" : 3,
            "componentType" : 5123,
            "count" : 240048,
            "type" : "SCALAR"
        }
    ],
    "bufferViews" : [
        {
            "buffer" : 0,
            "byteLength" : 512184,
            "byteOffset" : 0,
            "target" : 34962
        },
        {
            "buffer" : 0,
            "byteLength" : 512184,
            "byteOffset" : 512184,
            "target" : 34962
        },
        {
            "buffer" : 0,
            "byteLength" : 341456,
            "byteOffset" : 1024368,
            "target" : 34962
        },
        {
            "buffer" : 0,
            "byteLength" : 480096,
            "byteOffset" : 1365824,
            "target" : 34963
        },
        {
            "buffer" : 0,
            "byteLength" : 160896,
            "byteOffset" : 1845920
        }
    ],
    "samplers" : [
        {
            "magFilter" : 9729,
            "minFilter" : 9987
        }
    ],
    "buffers" : [
        {
            "byteLength" : 2006816,
            "uri" : "data:application/octet-stream;base64,"
        }
    ]
}
